<?xml version="1.0" encoding="utf-8"?>
<!-- Uploaded to: SVG Repo, www.svgrepo.com, Generator: SVG Repo Mixer Tools -->
<svg fill="#000000" width="800px" height="800px" viewBox="0 0 32 32" version="1.1" xmlns="http://www.w3.org/2000/svg">
<title>calendar-heart</title>
<path d="M28 5.25h-1.25v-3.25c0-0.414-0.336-0.75-0.75-0.75s-0.75 0.336-0.75 0.75v0 3.25h-18.5v-3.25c0-0.414-0.336-0.75-0.75-0.75s-0.75 0.336-0.75 0.75v0 3.25h-1.25c-1.518 0.002-2.748 1.232-2.75 2.75v19.998c0.002 1.518 1.232 2.748 2.75 2.75h24c1.518-0.002 2.748-1.232 2.75-2.75v-19.998c-0.002-1.518-1.232-2.748-2.75-2.75h-0zM4 6.75h24c0.69 0.001 1.249 0.56 1.25 1.25v3.25h-26.5v-3.25c0.001-0.69 0.56-1.249 1.25-1.25h0zM28 29.248h-24c-0.69-0.001-1.249-0.56-1.25-1.25v-15.248h26.5v15.248c-0.001 0.69-0.56 1.249-1.25 1.25h-0zM18.979 15.92c-0.255-0.066-0.547-0.104-0.848-0.104-0.833 0-1.597 0.29-2.199 0.774l0.007-0.005c-0.545-0.409-1.232-0.655-1.977-0.655-0.033 0-0.066 0.001-0.099 0.001l0.005-0c-0.894 0.036-1.693 0.415-2.275 1.007l-0.001 0c-0.625 0.606-1.013 1.453-1.013 2.391 0 0.974 0.419 1.851 1.086 2.46l0.003 0.002 3.72 4.125c0.138 0.153 0.336 0.248 0.557 0.248s0.419-0.096 0.556-0.247l0.001-0.001 3.709-4.111c0.74-0.672 1.203-1.638 1.203-2.713 0-0.297-0.035-0.586-0.102-0.863l0.005 0.025c-0.314-1.141-1.195-2.021-2.313-2.33l-0.023-0.005zM19.133 20.76l-0.025 0.029-3.164 3.508-3.189-3.537c-0.411-0.341-0.671-0.853-0.671-1.425 0-0.524 0.218-0.998 0.569-1.334l0.001-0.001c0.333-0.344 0.796-0.56 1.31-0.569l0.002-0c0.575 0.019 1.088 0.274 1.448 0.669l0.002 0.002c0.138 0.131 0.325 0.211 0.53 0.211s0.392-0.080 0.531-0.211l-0 0c0.406-0.477 1.008-0.777 1.679-0.777 0.155 0 0.306 0.016 0.452 0.046l-0.014-0.003c0.623 0.172 1.104 0.653 1.272 1.264l0.003 0.013c0.029 0.134 0.046 0.287 0.046 0.445 0 0.669-0.301 1.268-0.775 1.668l-0.003 0.003z"></path>
</svg>